{"asset":{"generator":"Khronos glTF Blender I/O v1.6.16","version":"2.0"},"extensionsUsed":["KHR_materials_unlit"],"scene":0,"scenes":[{"name":"Scene","nodes":[0,1]}],"nodes":[{"mesh":0,"name":"FENDI_PAIZI","translation":[0,0,0],"rotation":[0,0,0,1],"scale":[1,1,1]},{"mesh":1,"name":"FENDI_PAIZI.001","translation":[0,0,0],"rotation":[0,0,0,1],"scale":[1,1,1]}],"animations":[{"channels":[{"sampler":0,"target":{"node":0,"path":"rotation"}},{"sampler":1,"target":{"node":0,"path":"translation"}},{"sampler":2,"target":{"node":1,"path":"rotation"}},{"sampler":3,"target":{"node":1,"path":"translation"}}],"name":"an1","samplers":[{"input":8,"interpolation":"LINEAR","output":9},{"input":8,"interpolation":"LINEAR","output":10},{"input":8,"interpolation":"LINEAR","output":11},{"input":8,"interpolation":"LINEAR","output":12}]},{"channels":[{"sampler":0,"target":{"node":0,"path":"rotation"}},{"sampler":1,"target":{"node":0,"path":"translation"}}],"name":"an1_FENDI_PAIZI.000","samplers":[{"input":8,"interpolation":"LINEAR","output":13},{"input":8,"interpolation":"LINEAR","output":14}]},{"channels":[{"sampler":0,"target":{"node":1,"path":"rotation"}},{"sampler":1,"target":{"node":1,"path":"translation"}}],"name":"an1_FENDI_PAIZI.001","samplers":[{"input":8,"interpolation":"LINEAR","output":15},{"input":8,"interpolation":"LINEAR","output":16}]}],"materials":[{"extensions":{"KHR_materials_unlit":{}},"name":"ban_Unlit","pbrMetallicRoughness":{"baseColorTexture":{"index":0,"texCoord":0},"metallicFactor":0,"roughnessFactor":0.9,"baseColorFactor":[1,1,1,1]},"emissiveFactor":[0,0,0],"alphaMode":"OPAQUE","doubleSided":false},{"alphaMode":"BLEND","name":"FINDI_TOUMING.001","normalTexture":{"index":1,"texCoord":0},"pbrMetallicRoughness":{"baseColorTexture":{"index":2,"texCoord":0},"metallicFactor":0.24590164422988892,"roughnessFactor":0.2185792326927185,"baseColorFactor":[1,1,1,1]},"emissiveFactor":[0,0,0],"doubleSided":false},{"extensions":{"KHR_materials_unlit":{}},"name":"ban_Unlit.001","pbrMetallicRoughness":{"baseColorTexture":{"index":3,"texCoord":0},"metallicFactor":0,"roughnessFactor":0.9,"baseColorFactor":[1,1,1,1]},"emissiveFactor":[0,0,0],"alphaMode":"OPAQUE","doubleSided":false},{"alphaMode":"BLEND","name":"FINDI_TOUMING","normalTexture":{"index":4,"texCoord":0},"pbrMetallicRoughness":{"baseColorTexture":{"index":5,"texCoord":0},"metallicFactor":0.24590164422988892,"roughnessFactor":0.2185792326927185,"baseColorFactor":[1,1,1,1]},"emissiveFactor":[0,0,0],"doubleSided":false}],"meshes":[{"name":"FENDI_PAIZI","primitives":[{"attributes":{"POSITION":0,"NORMAL":1,"TEXCOORD_0":2},"indices":3,"material":0,"mode":4},{"attributes":{"POSITION":4,"NORMAL":5,"TEXCOORD_0":6},"indices":7,"material":1,"mode":4}]},{"name":"FENDI_PAIZI","primitives":[{"attributes":{"POSITION":0,"NORMAL":1,"TEXCOORD_0":2},"indices":3,"material":2,"mode":4},{"attributes":{"POSITION":4,"NORMAL":5,"TEXCOORD_0":6},"indices":7,"material":3,"mode":4}]}],"textures":[{"sampler":0,"source":0,"extensions":{"EXT_gpu_compressed_texture":{"astc":11,"bc7":12,"dxt":13,"pvrtc":14,"etc1":15,"width":1024,"height":1024,"hasAlpha":0,"compress":1}}},{"sampler":0,"source":1,"extensions":{"EXT_gpu_compressed_texture":{"astc":1,"bc7":2,"dxt":3,"pvrtc":4,"etc1":5,"width":512,"height":512,"hasAlpha":0,"compress":1}}},{"sampler":0,"source":2,"extensions":{"EXT_gpu_compressed_texture":{"astc":6,"bc7":7,"dxt":8,"pvrtc":9,"etc1":10,"width":512,"height":512,"hasAlpha":1,"compress":1}}},{"sampler":0,"source":3,"extensions":{"EXT_gpu_compressed_texture":{"astc":16,"bc7":17,"dxt":18,"pvrtc":19,"etc1":20,"width":1024,"height":1024,"hasAlpha":0,"compress":1}}},{"sampler":0,"source":1,"extensions":{"EXT_gpu_compressed_texture":{"astc":1,"bc7":2,"dxt":3,"pvrtc":4,"etc1":5,"width":512,"height":512,"hasAlpha":0,"compress":1}}},{"sampler":0,"source":2,"extensions":{"EXT_gpu_compressed_texture":{"astc":6,"bc7":7,"dxt":8,"pvrtc":9,"etc1":10,"width":512,"height":512,"hasAlpha":1,"compress":1}}}],"images":[{"mimeType":"image/jpeg","name":"morenhuang_banzi-1","uri":"morenhuang_banzi-1.jpg"},{"mimeType":"image/jpeg","name":"FINDI_TOUMING01_nomarl1","uri":"FINDI_TOUMING01_nomarl1.jpg"},{"mimeType":"image/png","name":"FINDI_TOUMING01_Basecoler","uri":"FINDI_TOUMING01_Basecoler.png"},{"mimeType":"image/jpeg","name":"lanse_banzi-1","uri":"lanse_banzi-1.jpg"}],"accessors":[{"bufferView":0,"componentType":5126,"count":1600,"max":[0.10123427957296371,0.03127918019890785,0.008733176626265049],"min":[-0.10123410820960999,-0.10365482419729233,0.0041909185238182545],"type":"VEC3","byteOffset":0},{"bufferView":1,"componentType":5126,"count":1600,"type":"VEC3","byteOffset":0},{"bufferView":2,"componentType":5126,"count":1600,"type":"VEC2","byteOffset":0},{"bufferView":3,"componentType":5123,"count":4992,"type":"SCALAR","byteOffset":0},{"bufferView":4,"componentType":5126,"count":10,"max":[0.02296818420290947,0.023241642862558365,0.008665970526635647],"min":[-0.02296818420290947,-0.09447882324457169,0.006555579602718353],"type":"VEC3","byteOffset":0},{"bufferView":5,"componentType":5126,"count":10,"type":"VEC3","byteOffset":0},{"bufferView":6,"componentType":5126,"count":10,"type":"VEC2","byteOffset":0},{"bufferView":7,"componentType":5123,"count":12,"type":"SCALAR","byteOffset":0},{"bufferView":8,"componentType":5126,"count":55,"max":[2.25],"min":[0],"type":"SCALAR","byteOffset":0},{"bufferView":9,"componentType":5126,"count":55,"type":"VEC4","byteOffset":0},{"bufferView":10,"componentType":5126,"count":55,"type":"VEC3","byteOffset":0},{"bufferView":11,"componentType":5126,"count":55,"type":"VEC4","byteOffset":0},{"bufferView":12,"componentType":5126,"count":55,"type":"VEC3","byteOffset":0},{"bufferView":13,"componentType":5126,"count":55,"type":"VEC4","byteOffset":0},{"bufferView":14,"componentType":5126,"count":55,"type":"VEC3","byteOffset":0},{"bufferView":15,"componentType":5126,"count":55,"type":"VEC4","byteOffset":0},{"bufferView":16,"componentType":5126,"count":55,"type":"VEC3","byteOffset":0}],"bufferViews":[{"buffer":0,"byteLength":19200,"byteOffset":0,"byteStride":12,"target":34962},{"buffer":0,"byteLength":19200,"byteOffset":19200,"byteStride":12,"target":34962},{"buffer":0,"byteLength":12800,"byteOffset":38400,"byteStride":8,"target":34962},{"buffer":0,"byteLength":9984,"byteOffset":51200,"target":34963},{"buffer":0,"byteLength":120,"byteOffset":61184,"byteStride":12,"target":34962},{"buffer":0,"byteLength":120,"byteOffset":61304,"byteStride":12,"target":34962},{"buffer":0,"byteLength":80,"byteOffset":61424,"byteStride":8,"target":34962},{"buffer":0,"byteLength":24,"byteOffset":61504,"target":34963},{"buffer":0,"byteLength":220,"byteOffset":61528},{"buffer":0,"byteLength":880,"byteOffset":61748},{"buffer":0,"byteLength":660,"byteOffset":62628},{"buffer":0,"byteLength":880,"byteOffset":63288},{"buffer":0,"byteLength":660,"byteOffset":64168},{"buffer":0,"byteLength":880,"byteOffset":64828},{"buffer":0,"byteLength":660,"byteOffset":65708},{"buffer":0,"byteLength":880,"byteOffset":66368},{"buffer":0,"byteLength":660,"byteOffset":67248}],"samplers":[{"magFilter":9729,"minFilter":9987,"wrapS":10497,"wrapT":10497}],"buffers":[{"name":"banzi2","byteLength":67908,"uri":"banzi2.bin"},{"name":"FINDI_TOUMING01_nomarl1.astc","byteLength":27064,"uri":"FINDI_TOUMING01_nomarl1.astc.bin"},{"name":"FINDI_TOUMING01_nomarl1.bc7","byteLength":27406,"uri":"FINDI_TOUMING01_nomarl1.bc7.bin"},{"name":"FINDI_TOUMING01_nomarl1.dxt","byteLength":11130,"uri":"FINDI_TOUMING01_nomarl1.dxt.bin"},{"name":"FINDI_TOUMING01_nomarl1.pvrtc","byteLength":8408,"uri":"FINDI_TOUMING01_nomarl1.pvrtc.bin"},{"name":"FINDI_TOUMING01_nomarl1.etc1","byteLength":8463,"uri":"FINDI_TOUMING01_nomarl1.etc1.bin"},{"name":"FINDI_TOUMING01_Basecoler.astc","byteLength":6602,"uri":"FINDI_TOUMING01_Basecoler.astc.bin"},{"name":"FINDI_TOUMING01_Basecoler.bc7","byteLength":6879,"uri":"FINDI_TOUMING01_Basecoler.bc7.bin"},{"name":"FINDI_TOUMING01_Basecoler.dxt","byteLength":5708,"uri":"FINDI_TOUMING01_Basecoler.dxt.bin"},{"name":"FINDI_TOUMING01_Basecoler.pvrtc","byteLength":4888,"uri":"FINDI_TOUMING01_Basecoler.pvrtc.bin"},{"name":"FINDI_TOUMING01_Basecoler.etc1","byteLength":719,"uri":"FINDI_TOUMING01_Basecoler.etc1.bin"},{"name":"morenhuang_banzi-1.astc","byteLength":321338,"uri":"morenhuang_banzi-1.astc.bin"},{"name":"morenhuang_banzi-1.bc7","byteLength":336596,"uri":"morenhuang_banzi-1.bc7.bin"},{"name":"morenhuang_banzi-1.dxt","byteLength":128434,"uri":"morenhuang_banzi-1.dxt.bin"},{"name":"morenhuang_banzi-1.pvrtc","byteLength":104810,"uri":"morenhuang_banzi-1.pvrtc.bin"},{"name":"morenhuang_banzi-1.etc1","byteLength":98296,"uri":"morenhuang_banzi-1.etc1.bin"},{"name":"lanse_banzi-1.astc","byteLength":495584,"uri":"lanse_banzi-1.astc.bin"},{"name":"lanse_banzi-1.bc7","byteLength":501385,"uri":"lanse_banzi-1.bc7.bin"},{"name":"lanse_banzi-1.dxt","byteLength":220700,"uri":"lanse_banzi-1.dxt.bin"},{"name":"lanse_banzi-1.pvrtc","byteLength":185084,"uri":"lanse_banzi-1.pvrtc.bin"},{"name":"lanse_banzi-1.etc1","byteLength":209881,"uri":"lanse_banzi-1.etc1.bin"}]}