{
    "asset" : {
        "generator" : "Khronos glTF Blender I/O v1.6.16",
        "version" : "2.0"
    },
    "extensionsUsed" : [
        "KHR_materials_unlit"
    ],
    "scene" : 0,
    "scenes" : [
        {
            "name" : "Scene",
            "nodes" : [
                2,
                9
            ]
        }
    ],
    "nodes" : [
        {
            "mesh" : 0,
            "name" : "FENDI_PAIZI"
        },
        {
            "mesh" : 1,
            "name" : "FENDI_PAIZI.001"
        },
        {
            "children" : [
                0,
                1
            ],
            "name" : "Group"
        },
        {
            "mesh" : 2,
            "name" : "FINDI_bao_back.001",
            "rotation" : [
                0.7071068286895752,
                0,
                0,
                0.7071067094802856
            ],
            "scale" : [
                0.009999999776482582,
                0.009999999776482582,
                0.009999999776482582
            ]
        },
        {
            "mesh" : 3,
            "name" : "FINDI_bao_front.001",
            "rotation" : [
                0.7071068286895752,
                0,
                0,
                0.7071067094802856
            ],
            "scale" : [
                0.009999999776482582,
                0.009999999776482582,
                0.009999999776482582
            ]
        },
        {
            "children" : [
                3,
                4
            ],
            "name" : "close-brown",
            "translation" : [
                0.3093189001083374,
                0,
                0
            ]
        },
        {
            "mesh" : 4,
            "name" : "FINDI_bao_back",
            "rotation" : [
                0.7071068286895752,
                0,
                0,
                0.7071067094802856
            ],
            "scale" : [
                0.009999999776482582,
                0.009999999776482582,
                0.009999999776482582
            ]
        },
        {
            "mesh" : 5,
            "name" : "FINDI_bao_front",
            "rotation" : [
                0.7071068286895752,
                0,
                0,
                0.7071067094802856
            ],
            "scale" : [
                0.009999999776482582,
                0.009999999776482582,
                0.009999999776482582
            ]
        },
        {
            "children" : [
                6,
                7
            ],
            "name" : "close-red",
            "translation" : [
                0.30935922265052795,
                0,
                0
            ]
        },
        {
            "children" : [
                5,
                8
            ],
            "name" : "Group.001"
        }
    ],
    "animations" : [
        {
            "channels" : [
                {
                    "sampler" : 0,
                    "target" : {
                        "node" : 0,
                        "path" : "rotation"
                    }
                },
                {
                    "sampler" : 1,
                    "target" : {
                        "node" : 0,
                        "path" : "translation"
                    }
                },
                {
                    "sampler" : 2,
                    "target" : {
                        "node" : 1,
                        "path" : "rotation"
                    }
                },
                {
                    "sampler" : 3,
                    "target" : {
                        "node" : 1,
                        "path" : "translation"
                    }
                }
            ],
            "name" : "an1",
            "samplers" : [
                {
                    "input" : 17,
                    "interpolation" : "LINEAR",
                    "output" : 18
                },
                {
                    "input" : 17,
                    "interpolation" : "LINEAR",
                    "output" : 19
                },
                {
                    "input" : 17,
                    "interpolation" : "LINEAR",
                    "output" : 20
                },
                {
                    "input" : 17,
                    "interpolation" : "LINEAR",
                    "output" : 21
                }
            ]
        }
    ],
    "materials" : [
        {
            "alphaMode" : "BLEND",
            "name" : "FINDI_TOUMING",
            "normalTexture" : {
                "index" : 0
            },
            "pbrMetallicRoughness" : {
                "baseColorTexture" : {
                    "index" : 1
                },
                "metallicFactor" : 0.24590164422988892,
                "roughnessFactor" : 0.2185792326927185
            }
        },
        {
            "extensions" : {
                "KHR_materials_unlit" : {}
            },
            "name" : "ban_Unlit",
            "pbrMetallicRoughness" : {
                "baseColorTexture" : {
                    "index" : 2
                },
                "metallicFactor" : 0,
                "roughnessFactor" : 0.9
            }
        },
        {
            "extensions" : {
                "KHR_materials_unlit" : {}
            },
            "name" : "ban_Unlit.001",
            "pbrMetallicRoughness" : {
                "baseColorTexture" : {
                    "index" : 3
                },
                "metallicFactor" : 0,
                "roughnessFactor" : 0.9
            }
        },
        {
            "doubleSided" : true,
            "name" : "FINDI_bag_back.003",
            "normalTexture" : {
                "index" : 4
            },
            "occlusionTexture" : {
                "index" : 5
            },
            "pbrMetallicRoughness" : {
                "baseColorTexture" : {
                    "index" : 6
                },
                "metallicRoughnessTexture" : {
                    "index" : 5
                }
            }
        },
        {
            "doubleSided" : true,
            "name" : "FINDI_bag_front.003",
            "normalTexture" : {
                "index" : 7
            },
            "occlusionTexture" : {
                "index" : 8
            },
            "pbrMetallicRoughness" : {
                "baseColorTexture" : {
                    "index" : 9
                },
                "metallicRoughnessTexture" : {
                    "index" : 8
                }
            }
        },
        {
            "doubleSided" : true,
            "name" : "FINDI_bag_back.002",
            "normalTexture" : {
                "index" : 10
            },
            "occlusionTexture" : {
                "index" : 11
            },
            "pbrMetallicRoughness" : {
                "baseColorTexture" : {
                    "index" : 12
                },
                "metallicRoughnessTexture" : {
                    "index" : 11
                }
            }
        },
        {
            "doubleSided" : true,
            "name" : "FINDI_bag_front.002",
            "normalTexture" : {
                "index" : 13
            },
            "occlusionTexture" : {
                "index" : 14
            },
            "pbrMetallicRoughness" : {
                "baseColorTexture" : {
                    "index" : 15
                },
                "metallicRoughnessTexture" : {
                    "index" : 14
                }
            }
        }
    ],
    "meshes" : [
        {
            "name" : "FENDI_PAIZI",
            "primitives" : [
                {
                    "attributes" : {
                        "POSITION" : 0,
                        "NORMAL" : 1,
                        "TEXCOORD_0" : 2
                    },
                    "indices" : 3,
                    "material" : 0
                },
                {
                    "attributes" : {
                        "POSITION" : 4,
                        "NORMAL" : 5,
                        "TEXCOORD_0" : 6
                    },
                    "indices" : 7,
                    "material" : 1
                }
            ]
        },
        {
            "name" : "FENDI_PAIZI",
            "primitives" : [
                {
                    "attributes" : {
                        "POSITION" : 0,
                        "NORMAL" : 1,
                        "TEXCOORD_0" : 2
                    },
                    "indices" : 3,
                    "material" : 0
                },
                {
                    "attributes" : {
                        "POSITION" : 4,
                        "NORMAL" : 5,
                        "TEXCOORD_0" : 6
                    },
                    "indices" : 7,
                    "material" : 2
                }
            ]
        },
        {
            "name" : "\u7f51\u683c.013",
            "primitives" : [
                {
                    "attributes" : {
                        "POSITION" : 8,
                        "NORMAL" : 9,
                        "TEXCOORD_0" : 10,
                        "TEXCOORD_1" : 11
                    },
                    "indices" : 12,
                    "material" : 3
                }
            ]
        },
        {
            "name" : "\u7f51\u683c.012",
            "primitives" : [
                {
                    "attributes" : {
                        "POSITION" : 13,
                        "NORMAL" : 14,
                        "TEXCOORD_0" : 15
                    },
                    "indices" : 16,
                    "material" : 4
                }
            ]
        },
        {
            "name" : "\u7f51\u683c.013",
            "primitives" : [
                {
                    "attributes" : {
                        "POSITION" : 8,
                        "NORMAL" : 9,
                        "TEXCOORD_0" : 10,
                        "TEXCOORD_1" : 11
                    },
                    "indices" : 12,
                    "material" : 5
                }
            ]
        },
        {
            "name" : "\u7f51\u683c.012",
            "primitives" : [
                {
                    "attributes" : {
                        "POSITION" : 13,
                        "NORMAL" : 14,
                        "TEXCOORD_0" : 15
                    },
                    "indices" : 16,
                    "material" : 6
                }
            ]
        }
    ],
    "textures" : [
        {
            "sampler" : 0,
            "source" : 0
        },
        {
            "sampler" : 0,
            "source" : 1
        },
        {
            "sampler" : 0,
            "source" : 2
        },
        {
            "sampler" : 0,
            "source" : 3
        },
        {
            "sampler" : 0,
            "source" : 4
        },
        {
            "sampler" : 0,
            "source" : 5
        },
        {
            "sampler" : 0,
            "source" : 6
        },
        {
            "sampler" : 0,
            "source" : 7
        },
        {
            "sampler" : 0,
            "source" : 8
        },
        {
            "sampler" : 0,
            "source" : 9
        },
        {
            "sampler" : 0,
            "source" : 4
        },
        {
            "sampler" : 0,
            "source" : 5
        },
        {
            "sampler" : 0,
            "source" : 10
        },
        {
            "sampler" : 0,
            "source" : 7
        },
        {
            "sampler" : 0,
            "source" : 8
        },
        {
            "sampler" : 0,
            "source" : 11
        }
    ],
    "images" : [
        {
            "mimeType" : "image/jpeg",
            "name" : "FINDI_TOUMING01_nomarl1",
            "uri" : "FINDI_TOUMING01_nomarl1.jpg"
        },
        {
            "mimeType" : "image/png",
            "name" : "FINDI_TOUMING01_Basecoler",
            "uri" : "FINDI_TOUMING01_Basecoler.png"
        },
        {
            "mimeType" : "image/jpeg",
            "name" : "lanse_banzi-1",
            "uri" : "lanse_banzi-1.jpg"
        },
        {
            "mimeType" : "image/jpeg",
            "name" : "lvse_banzi-1",
            "uri" : "lvse_banzi-1.jpg"
        },
        {
            "mimeType" : "image/jpeg",
            "name" : "FINDI_bag_back_nomarl-01",
            "uri" : "FINDI_bag_back_nomarl-01.jpg"
        },
        {
            "mimeType" : "image/jpeg",
            "name" : "FINDI_bag_back01_arm",
            "uri" : "FINDI_bag_back01_arm.jpg"
        },
        {
            "mimeType" : "image/jpeg",
            "name" : "FINDI_bag_back-brown_Basecoler",
            "uri" : "FINDI_bag_back-brown_Basecoler.jpg"
        },
        {
            "mimeType" : "image/jpeg",
            "name" : "FINDI_bag_front_nomarl-01",
            "uri" : "FINDI_bag_front_nomarl-01.jpg"
        },
        {
            "mimeType" : "image/jpeg",
            "name" : "FINDI_bag_front01_arm",
            "uri" : "FINDI_bag_front01_arm.jpg"
        },
        {
            "mimeType" : "image/jpeg",
            "name" : "FINDI_bag_front-brown_Basecoler",
            "uri" : "FINDI_bag_front-brown_Basecoler.jpg"
        },
        {
            "mimeType" : "image/jpeg",
            "name" : "FINDI_bag_back-red_Basecoler",
            "uri" : "FINDI_bag_back-red_Basecoler.jpg"
        },
        {
            "mimeType" : "image/jpeg",
            "name" : "FINDI_bag_front-red_Basecoler",
            "uri" : "FINDI_bag_front-red_Basecoler.jpg"
        }
    ],
    "accessors" : [
        {
            "bufferView" : 0,
            "componentType" : 5126,
            "count" : 10,
            "max" : [
                0.02296818420290947,
                0.023241642862558365,
                0.008665970526635647
            ],
            "min" : [
                -0.02296818420290947,
                -0.09447882324457169,
                0.006555579602718353
            ],
            "type" : "VEC3"
        },
        {
            "bufferView" : 1,
            "componentType" : 5126,
            "count" : 10,
            "type" : "VEC3"
        },
        {
            "bufferView" : 2,
            "componentType" : 5126,
            "count" : 10,
            "type" : "VEC2"
        },
        {
            "bufferView" : 3,
            "componentType" : 5123,
            "count" : 12,
            "type" : "SCALAR"
        },
        {
            "bufferView" : 4,
            "componentType" : 5126,
            "count" : 1600,
            "max" : [
                0.10123427957296371,
                0.03127918019890785,
                0.008733176626265049
            ],
            "min" : [
                -0.10123410820960999,
                -0.10365482419729233,
                0.0041909185238182545
            ],
            "type" : "VEC3"
        },
        {
            "bufferView" : 5,
            "componentType" : 5126,
            "count" : 1600,
            "type" : "VEC3"
        },
        {
            "bufferView" : 6,
            "componentType" : 5126,
            "count" : 1600,
            "type" : "VEC2"
        },
        {
            "bufferView" : 7,
            "componentType" : 5123,
            "count" : 4992,
            "type" : "SCALAR"
        },
        {
            "bufferView" : 8,
            "componentType" : 5126,
            "count" : 3882,
            "max" : [
                16.60004425048828,
                1.4411474466323853,
                17.47013282775879
            ],
            "min" : [
                -16.60004425048828,
                -6.81622838973999,
                -7.076583385467529
            ],
            "type" : "VEC3"
        },
        {
            "bufferView" : 9,
            "componentType" : 5126,
            "count" : 3882,
            "type" : "VEC3"
        },
        {
            "bufferView" : 10,
            "componentType" : 5126,
            "count" : 3882,
            "type" : "VEC2"
        },
        {
            "bufferView" : 11,
            "componentType" : 5126,
            "count" : 3882,
            "type" : "VEC2"
        },
        {
            "bufferView" : 12,
            "componentType" : 5123,
            "count" : 20490,
            "type" : "SCALAR"
        },
        {
            "bufferView" : 13,
            "componentType" : 5126,
            "count" : 3895,
            "max" : [
                16.60004425048828,
                6.81622838973999,
                17.47013282775879
            ],
            "min" : [
                -16.60004425048828,
                -1.00102698802948,
                -7.0927734375
            ],
            "type" : "VEC3"
        },
        {
            "bufferView" : 14,
            "componentType" : 5126,
            "count" : 3895,
            "type" : "VEC3"
        },
        {
            "bufferView" : 15,
            "componentType" : 5126,
            "count" : 3895,
            "type" : "VEC2"
        },
        {
            "bufferView" : 16,
            "componentType" : 5123,
            "count" : 20478,
            "type" : "SCALAR"
        },
        {
            "bufferView" : 17,
            "componentType" : 5126,
            "count" : 55,
            "max" : [
                2.25
            ],
            "min" : [
                0
            ],
            "type" : "SCALAR"
        },
        {
            "bufferView" : 18,
            "componentType" : 5126,
            "count" : 55,
            "type" : "VEC4"
        },
        {
            "bufferView" : 19,
            "componentType" : 5126,
            "count" : 55,
            "type" : "VEC3"
        },
        {
            "bufferView" : 20,
            "componentType" : 5126,
            "count" : 55,
            "type" : "VEC4"
        },
        {
            "bufferView" : 21,
            "componentType" : 5126,
            "count" : 55,
            "type" : "VEC3"
        }
    ],
    "bufferViews" : [
        {
            "buffer" : 0,
            "byteLength" : 120,
            "byteOffset" : 0
        },
        {
            "buffer" : 0,
            "byteLength" : 120,
            "byteOffset" : 120
        },
        {
            "buffer" : 0,
            "byteLength" : 80,
            "byteOffset" : 240
        },
        {
            "buffer" : 0,
            "byteLength" : 24,
            "byteOffset" : 320
        },
        {
            "buffer" : 0,
            "byteLength" : 19200,
            "byteOffset" : 344
        },
        {
            "buffer" : 0,
            "byteLength" : 19200,
            "byteOffset" : 19544
        },
        {
            "buffer" : 0,
            "byteLength" : 12800,
            "byteOffset" : 38744
        },
        {
            "buffer" : 0,
            "byteLength" : 9984,
            "byteOffset" : 51544
        },
        {
            "buffer" : 0,
            "byteLength" : 46584,
            "byteOffset" : 61528
        },
        {
            "buffer" : 0,
            "byteLength" : 46584,
            "byteOffset" : 108112
        },
        {
            "buffer" : 0,
            "byteLength" : 31056,
            "byteOffset" : 154696
        },
        {
            "buffer" : 0,
            "byteLength" : 31056,
            "byteOffset" : 185752
        },
        {
            "buffer" : 0,
            "byteLength" : 40980,
            "byteOffset" : 216808
        },
        {
            "buffer" : 0,
            "byteLength" : 46740,
            "byteOffset" : 257788
        },
        {
            "buffer" : 0,
            "byteLength" : 46740,
            "byteOffset" : 304528
        },
        {
            "buffer" : 0,
            "byteLength" : 31160,
            "byteOffset" : 351268
        },
        {
            "buffer" : 0,
            "byteLength" : 40956,
            "byteOffset" : 382428
        },
        {
            "buffer" : 0,
            "byteLength" : 220,
            "byteOffset" : 423384
        },
        {
            "buffer" : 0,
            "byteLength" : 880,
            "byteOffset" : 423604
        },
        {
            "buffer" : 0,
            "byteLength" : 660,
            "byteOffset" : 424484
        },
        {
            "buffer" : 0,
            "byteLength" : 880,
            "byteOffset" : 425144
        },
        {
            "buffer" : 0,
            "byteLength" : 660,
            "byteOffset" : 426024
        }
    ],
    "samplers" : [
        {
            "magFilter" : 9729,
            "minFilter" : 9987
        }
    ],
    "buffers" : [
        {
            "byteLength" : 426684,
            "uri" : "banzi+bag.bin"
        }
    ]
}
